# xmcd
#
# Track frame offsets: 
#        150
#        9648
#        22176
#        31737
#        45472
#        54492
#        73984
#        97843
#        120981
#        136658
#        147972
#        165598
#        184220
#        193921
#        204207
#        234487
#        253826
#        276268
#        294810
#
# Disc length: 4002 seconds
#
# Revision: 0
# Processed by: cddbd v1.5.2PL0 Copyright (c) Steve Scherf et al.
# Submitted via: ExactAudioCopy v1.0b3
#
DISCID=0a0fa013
DTITLE=The Fellowship - In Elven Lands
DYEAR=1900
DGENRE=
TTITLE0=Tîr Im
TTITLE1=The Longbottom Leaf
TTITLE2=The Silver Bowl
TTITLE3=The Man in the Moon
TTITLE4=A Verse to Elbereth Gilthóniel
TTITLE5=Elo Elleth
TTITLE6=Beware the Wolf
TTITLE7=Oromë: Lord of the Hunt
TTITLE8=Creation Hymn
TTITLE9=Silmesse
TTITLE10=Elechoi Mirnu Alglaron
TTITLE11=When Dûrin Woke
TTITLE12=Eala Earendel
TTITLE13=Namárië
TTITLE14=The Battle of Evermore
TTITLE15=The Blood of Kings
TTITLE16=Canticle to Elbereth Gilthóniel
TTITLE17=The Evening Star
TTITLE18=Terra Beata
EXTD=
EXTT0=
EXTT1=
EXTT2=
EXTT3=
EXTT4=
EXTT5=
EXTT6=
EXTT7=
EXTT8=
EXTT9=
EXTT10=
EXTT11=
EXTT12=
EXTT13=
EXTT14=
EXTT15=
EXTT16=
EXTT17=
EXTT18=
PLAYORDER=
